
<svg width="32" height="32" viewBox="0 0 32 32" fill="none" xmlns="http://www.w3.org/2000/svg">
  <!-- Purple gradient background with rounded corners -->
  <defs>
    <linearGradient id="purpleGradient" x1="0%" y1="0%" x2="100%" y2="100%">
      <stop offset="0%" style="stop-color:#8B5CF6"/>
      <stop offset="50%" style="stop-color:#7C3AED"/>
      <stop offset="100%" style="stop-color:#6D28D9"/>
    </linearGradient>
  </defs>
  
  <!-- Rounded rectangle background -->
  <rect x="2" y="2" width="28" height="28" rx="6" ry="6" fill="url(#purpleGradient)"/>
  
  <!-- Rabbit icon centered -->
  <g transform="translate(8, 8)">
    <!-- Rabbit ears -->
    <path d="M6 2C6 1.5 6.5 1 7 1C7.5 1 8 1.5 8 2V6C8 6.5 7.5 7 7 7C6.5 7 6 6.5 6 6V2Z" fill="white"/>
    <path d="M8 2C8 1.5 8.5 1 9 1C9.5 1 10 1.5 10 2V6C10 6.5 9.5 7 9 7C8.5 7 8 6.5 8 6V2Z" fill="white"/>
    
    <!-- Rabbit head -->
    <circle cx="8" cy="9" r="4" fill="white"/>
    
    <!-- Rabbit eyes -->
    <circle cx="7" cy="8.5" r="0.5" fill="#7C3AED"/>
    <circle cx="9" cy="8.5" r="0.5" fill="#7C3AED"/>
    
    <!-- Rabbit nose -->
    <path d="M8 9.5L7.5 10L8.5 10Z" fill="#7C3AED"/>
    
    <!-- Rabbit body -->
    <ellipse cx="8" cy="12" rx="3" ry="2" fill="white"/>
  </g>
</svg>
